:SAMPLES-PER-SECOND 30
:FULLY-SPECIFIED
:DEGREES
543
root  -64.2137 39.7804 -4.09565 51.1441 -84.1269 -49.7652
RightUpLeg  -16.8747 -1.94199 2.01663
RightLeg  6.88677 -1.58971 0.113153
RightFoot  6.59379 -0.404736 2.8485
RightToes  5.82063e-011 0 -3.6325e-017
Spine  70.7682 -7.27377 10.8947
Spine1  2.00563 3.20548 -6.77048
HEad  -53.5509 -9.27143 1.63972
LeftShoulder1  2.93464 -11.3461 -12.7097
LeftArm  -3.94912 -48.1719 -54.4748
LeftForeArm  22.1137 -7.39643 -6.63865
LeftHand  -0.380094 -0.292468 7.87658
RightShoulder  1.50067 4.60055 11.4095
RightArm  7.44884 54.107 49.9107
RightForeArm  -5.04192 4.2405 6.5078
RightHand  -1.45876 7.88181 -13.0532
LeftUpLeg  -22.4202 8.73941 2.18062
LeftLeg  20.4843 -6.98019 -2.54992
LeftFoot  0.311951 -0.742271 7.24351
LeftToes  1.81573e-012 2.54609e-010 -3.45981e-011
544
root  -64.5141 39.9533 -3.9519 61.8804 -84.5615 -60.0899
RightUpLeg  -15.2801 -1.21508 2.27125
RightLeg  3.71611 -1.3878 -0.10905
RightFoot  7.30272 -0.5419 3.60792
RightToes  5.82063e-011 0 -3.6325e-017
Spine  65.4878 -6.34248 10.8409
Spine1  3.18188 3.52536 -7.44776
HEad  -53.6393 -9.2926 1.55307
LeftShoulder1  2.99737 -10.3475 -14.7807
LeftArm  -1.60403 -42.4795 -55.0918
LeftForeArm  23.4555 -6.67368 -8.25437
LeftHand  -0.325077 0.739512 8.04319
RightShoulder  1.45203 3.53467 13.7604
RightArm  10.9062 49.5339 53.7239
RightForeArm  -2.98034 3.75041 7.30814
RightHand  -1.53442 8.15824 -13.4351
LeftUpLeg  -21.5522 10.1587 2.32381
LeftLeg  19.2165 -7.31722 -2.64309
LeftFoot  0.0297115 -0.697989 7.00056
LeftToes  1.81573e-012 2.54609e-010 -3.45981e-011
545
root  -64.8174 40.1202 -3.80992 73.0815 -85.1311 -70.9685
RightUpLeg  -13.7746 -0.795632 2.38899
RightLeg  0.8206 -0.620854 -0.52319
RightFoot  8.31425 -0.618619 3.89818
RightToes  5.82063e-011 0 -3.6325e-017
Spine  60.5149 -4.91289 10.499
Spine1  3.93304 4.04332 -7.28818
HEad  -53.5794 -9.73508 1.2262
LeftShoulder1  3.08478 -9.48038 -17.1017
LeftArm  -0.212622 -36.2041 -55.3508
LeftForeArm  25.1008 -6.60167 -9.30378
LeftHand  -0.207385 1.79023 6.61964
RightShoulder  1.36578 2.44513 16.2877
RightArm  12.6322 44.3967 54.9573
RightForeArm  -2.17901 3.52635 7.9133
RightHand  -1.56579 8.1391 -13.7174
LeftUpLeg  -20.3848 10.8622 2.41637
LeftLeg  17.6084 -6.8033 -2.72833
LeftFoot  0.168061 -0.721758 7.14098
LeftToes  1.81573e-012 2.54609e-010 -3.45981e-011
546
root  -65.1426 40.295 -3.63563 73.196 -85.9283 -71.7487
RightUpLeg  -11.4058 -1.10033 1.74908
RightLeg  -1.3762 0.0772101 -1.24846
RightFoot  8.679 -0.762633 4.65755
RightToes  5.82063e-011 0 -3.6325e-017
Spine  56.7159 -4.31729 9.85251
Spine1  4.57099 3.63867 -7.16995
HEad  -53.06 -9.74578 0.633552
LeftShoulder1  3.00545 -8.37689 -18.7578
LeftArm  0.0996454 -29.864 -55.2247
LeftForeArm  26.4023 -6.46778 -9.69856
LeftHand  -0.14916 2.07591 4.38515
RightShoulder  1.22882 1.48661 18.1729
RightArm  13.698 39.1213 56.1685
RightForeArm  -2.33864 3.61959 8.2821
RightHand  -1.48811 8.14549 -13.0584
LeftUpLeg  -17.7299 10.0347 2.07978
LeftLeg  15.1904 -5.6096 -2.76493
LeftFoot  0.623007 -0.771297 7.31436
LeftToes  1.81573e-012 2.54609e-010 -3.45981e-011
547
root  -65.5286 40.4425 -3.45466 81.1876 -86.683 -80.431
RightUpLeg  -9.23372 -1.88745 1.04701
RightLeg  -3.07892 1.4995 -1.36989
RightFoot  8.82717 -0.80327 4.85573
RightToes  5.82063e-011 0 -3.6325e-017
Spine  53.2713 -3.48267 9.13133
Spine1  4.6048 3.56742 -7.08619
HEad  -51.2215 -9.73671 0.694234
LeftShoulder1  2.97713 -7.68565 -20.173
LeftArm  1.32416 -23.918 -54.0816
LeftForeArm  27.5925 -5.83041 -10.6241
LeftHand  -0.0562533 2.65286 1.1218
RightShoulder  1.11703 0.627034 20.7489
RightArm  14.7133 34.1573 55.5461
RightForeArm  -1.93429 3.76689 8.81085
RightHand  -1.41089 7.87364 -12.6334
LeftUpLeg  -15.07 9.13661 1.92771
LeftLeg  13.0365 -4.06882 -2.84671
LeftFoot  0.92699 -0.814431 7.51237
LeftToes  1.81573e-012 2.54609e-010 -3.45981e-011
548
root  -65.9119 40.5646 -3.30365 96.0428 -87.341 -95.9475
RightUpLeg  -7.52808 -2.16646 0.515373
RightLeg  -4.00307 2.68918 -1.86847
RightFoot  8.73299 -0.827671 5.01246
RightToes  5.82063e-011 0 -3.6325e-017
Spine  50.2025 -2.60873 8.16105
Spine1  4.47851 3.57361 -7.10812
HEad  -48.8647 -9.91718 0.907767
LeftShoulder1  2.88787 -6.89139 -21.4281
LeftArm  1.05788 -18.0374 -52.9988
LeftForeArm  28.1626 -5.33052 -10.9062
LeftHand  -0.231421 0.360293 5.62404
RightShoulder  1.02681 0.0867465 22.4885
RightArm  15.7895 29.3693 54.8831
RightForeArm  -1.38427 4.05582 9.30009
RightHand  -1.2498 6.86215 -12.1282
LeftUpLeg  -12.5095 8.37918 1.78406
LeftLeg  10.9464 -2.42706 -3.03943
LeftFoot  1.30661 -0.877654 7.83554
LeftToes  1.81573e-012 2.54609e-010 -3.45981e-011
549
root  -66.3157 40.6606 -3.14966 97.5671 -87.5745 -98.1082
RightUpLeg  -5.87042 -2.37777 0.108219
RightLeg  -4.63266 2.99684 -2.17975
RightFoot  8.49466 -0.83485 5.10648
RightToes  5.82063e-011 0 -3.6325e-017
Spine  47.1661 -2.4273 7.72493
Spine1  4.45473 3.26328 -7.31365
HEad  -47.0599 -10.8259 2.36325
LeftShoulder1  2.83404 -6.23953 -22.8099
LeftArm  0.328707 -12.8502 -51.3969
LeftForeArm  29.4501 -4.92198 -10.8785
LeftHand  -0.169551 1.71013 4.78479
RightShoulder  0.877833 -0.560505 23.7989
RightArm  16.3224 24.8906 54.496
RightForeArm  -1.27445 4.61762 9.53278
RightHand  -1.33772 7.14845 -12.6675
LeftUpLeg  -10.2883 8.06294 1.59266
LeftLeg  9.32946 -2.16049 -3.12901
LeftFoot  1.33927 -0.884485 7.8736
LeftToes  1.81573e-012 2.54609e-010 -3.45981e-011
550
root  -66.6841 40.7311 -3.00668 100.28 -87.7725 -101.349
RightUpLeg  -4.73659 -2.72558 -0.309335
RightLeg  -4.59915 3.39475 -2.2665
RightFoot  7.99474 -0.818915 5.12566
RightToes  5.82063e-011 0 -3.6325e-017
Spine  43.9039 -2.16354 7.10629
Spine1  5.40196 2.88729 -7.01028
HEad  -45.9761 -12.3887 4.40781
LeftShoulder1  2.70137 -5.54356 -23.6245
LeftArm  -0.69962 -8.39412 -50.4672
LeftForeArm  28.955 -5.03288 -10.4736
LeftHand  -0.0278701 3.78391 0.99583
RightShoulder  0.781782 -0.922805 24.3579
RightArm  16.4183 21.2838 54.2965
RightForeArm  -0.00370871 5.55061 9.47253
RightHand  -1.2291 6.76335 -12.0296
LeftUpLeg  -8.28756 8.10717 1.31454
LeftLeg  7.76804 -2.22353 -3.07824
LeftFoot  1.35949 -0.894039 7.94529
LeftToes  1.81573e-012 2.54609e-010 -3.45981e-011
551
root  -67.0119 40.7852 -2.87588 103.272 -87.8356 -104.764
RightUpLeg  -3.86845 -2.9407 -0.583079
RightLeg  -4.45597 4.00633 -2.38849
RightFoot  7.84595 -0.764161 4.83976
RightToes  5.82063e-011 0 -3.6325e-017
Spine  41.2063 -1.82971 6.3128
Spine1  5.68658 2.48378 -6.36502
HEad  -44.6459 -14.6203 6.45587
LeftShoulder1  2.60226 -4.9685 -24.5221
LeftArm  -2.02958 -4.42774 -49.3944
LeftForeArm  28.1023 -5.23016 -9.86639
LeftHand  -0.00138595 3.52037 -1.08388
RightShoulder  0.657992 -1.39163 25.364
RightArm  17.4973 18.6856 53.3222
RightForeArm  -0.167359 6.3719 9.77223
RightHand  -1.20765 6.87395 -11.7253
LeftUpLeg  -6.74192 7.96938 1.04994
LeftLeg  6.72077 -1.98468 -2.80007
LeftFoot  1.27941 -0.894421 8.00388
LeftToes  1.81573e-012 2.54609e-010 -3.45981e-011
552
root  -67.3157 40.8236 -2.77083 92.3494 -87.9707 -94.349
RightUpLeg  -2.76587 -3.2847 -0.938658
RightLeg  -4.45984 3.88729 -2.38596
RightFoot  7.21312 -0.8232 5.33796
RightToes  5.82063e-011 0 -3.6325e-017
Spine  38.8277 -1.69684 5.34755
Spine1  5.79374 1.77473 -5.41264
HEad  -43.6408 -17.2422 8.69966
LeftShoulder1  2.48907 -4.42441 -25.2312
LeftArm  -2.72582 -1.05865 -48.6497
LeftForeArm  27.5652 -5.14439 -9.59451
LeftHand  -0.0158119 3.86617 -0.743513
RightShoulder  0.522655 -1.88114 26.5595
RightArm  18.6743 16.6009 52.0726
RightForeArm  0.183418 7.60879 9.81498
RightHand  -1.08835 6.62199 -10.8057
LeftUpLeg  -5.49066 7.69444 0.717444
LeftLeg  6.26779 -2.01716 -2.48099
LeftFoot  1.09635 -0.89731 8.1588
LeftToes  1.81573e-012 2.54609e-010 -3.45981e-011
553
root  -67.5891 40.8541 -2.67122 82.9129 -87.9528 -85.4457
RightUpLeg  -1.67578 -3.77161 -1.27993
RightLeg  -4.47293 4.10908 -2.17084
RightFoot  6.78941 -0.804326 5.32905
RightToes  5.82063e-011 0 -3.6325e-017
Spine  36.6406 -1.6054 4.58677
Spine1  6.24444 1.22111 -4.5995
HEad  -42.6616 -19.6194 10.1378
LeftShoulder1  2.4096 -4.03138 -25.8355
LeftArm  -3.71893 1.13717 -48.113
LeftForeArm  28.6928 -5.27174 -9.0569
LeftHand  -0.0286785 5.23644 -3.58233
RightShoulder  0.411971 -2.23741 27.0987
RightArm  19.2469 14.6316 51.3405
RightForeArm  -0.0221638 9.1803 9.42115
RightHand  -0.964051 5.92302 -10.1836
LeftUpLeg  -4.45285 7.42848 0.50027
LeftLeg  6.16628 -2.00321 -2.13383
LeftFoot  0.884636 -0.895716 8.29725
LeftToes  1.81573e-012 2.54609e-010 -3.45981e-011
554
root  -67.7969 40.877 -2.65052 87.2419 -87.9082 -90.0337
RightUpLeg  -1.12266 -3.80561 -1.24349
RightLeg  -4.38972 4.35514 -2.25554
RightFoot  6.61412 -0.775533 5.19297
RightToes  5.82063e-011 0 -3.6325e-017
Spine  34.61 -1.10926 3.34489
Spine1  6.72976 0.895514 -3.36362
HEad  -41.8511 -21.844 11.5195
LeftShoulder1  2.33017 -3.7352 -26.0518
LeftArm  -4.17455 2.54369 -47.9767
LeftForeArm  29.0463 -5.66299 -8.83748
LeftHand  -0.0601804 5.85986 -4.8408
RightShoulder  0.342166 -2.45914 27.483
RightArm  19.9427 13.57 50.8548
RightForeArm  -1.42823 10.1194 9.25602
RightHand  -1.03991 6.5174 -10.435
LeftUpLeg  -3.74053 7.43933 0.568015
LeftLeg  6.00963 -1.97425 -2.03572
LeftFoot  0.667821 -0.876079 8.2748
LeftToes  1.81573e-012 2.54609e-010 -3.45981e-011
